sfk_cyclingleg_states
version=1
nRows=11
nColumns=53
inDegrees=yes

# SIMM Motion File Header:
name sfk_cyclingleg_states
datacolumns 53
datarows 11
otherdata 1
range 0.00000000 0.01138269
endheader
time	/jointset/bb/crank_angle/value	/jointset/bb/crank_angle/speed	/jointset/spindle/pedal_angle_r/value	/jointset/spindle/pedal_angle_r/speed	/jointset/ground_pelvis/pelvis_tilt/value	/jointset/ground_pelvis/pelvis_tilt/speed	/jointset/ground_pelvis/pelvis_list/value	/jointset/ground_pelvis/pelvis_list/speed	/jointset/ground_pelvis/pelvis_rotation/value	/jointset/ground_pelvis/pelvis_rotation/speed	/jointset/ground_pelvis/pelvis_tx/value	/jointset/ground_pelvis/pelvis_tx/speed	/jointset/ground_pelvis/pelvis_ty/value	/jointset/ground_pelvis/pelvis_ty/speed	/jointset/ground_pelvis/pelvis_tz/value	/jointset/ground_pelvis/pelvis_tz/speed	/jointset/hip_r/hip_angle_r/value	/jointset/hip_r/hip_angle_r/speed	/jointset/hip_r/hip_adduction_r/value	/jointset/hip_r/hip_adduction_r/speed	/jointset/hip_r/hip_rotation_r/value	/jointset/hip_r/hip_rotation_r/speed	/jointset/knee_r/knee_angle_r/value	/jointset/knee_r/knee_angle_r/speed	/jointset/knee_r/tib_tx_r/value	/jointset/knee_r/tib_tx_r/speed	/jointset/knee_r/tib_ty_r/value	/jointset/knee_r/tib_ty_r/speed	/jointset/tib_pat_r/pat_angle_r/value	/jointset/tib_pat_r/pat_angle_r/speed	/jointset/tib_pat_r/pat_tx_r/value	/jointset/tib_pat_r/pat_tx_r/speed	/jointset/tib_pat_r/pat_ty_r/value	/jointset/tib_pat_r/pat_ty_r/speed	/jointset/ankle_r/ankle_angle_r/value	/jointset/ankle_r/ankle_angle_r/speed	/jointset/subtalar_r/subtalar_angle_r/value	/jointset/subtalar_r/subtalar_angle_r/speed	/jointset/mtp_r/mtp_angle_r/value	/jointset/mtp_r/mtp_angle_r/speed	/forceset/bifemlh_r/activation	/forceset/bifemlh_r/fiber_length	/forceset/bifemsh_r/activation	/forceset/bifemsh_r/fiber_length	/forceset/glut_max2_r/activation	/forceset/glut_max2_r/fiber_length	/forceset/vas_int_r/activation	/forceset/vas_int_r/fiber_length	/forceset/med_gas_r/activation	/forceset/med_gas_r/fiber_length	/forceset/tib_ant_r/activation	/forceset/tib_ant_r/fiber_length
      0.00000000	    -10.13487855	   -480.13863232	     -0.33263585	    612.63851036	     -0.00000000	      0.00000000	     -0.00000000	     -0.00000000	     -0.00000000	      0.00000000	     -0.00000000	      0.00000000	     -0.00000000	     -0.00000000	     -0.00000000	      0.00000000	     80.37634255	     49.91395567	      4.04256409	      1.26483505	     -4.19507005	     14.13209085	   -119.06158026	    128.39772105	     -0.00340490	      0.04750505	     -0.49574279	      0.04065200	     17.65069646	      0.07486898	      0.01991928	      0.06518853	     -0.02453158	      0.01061798	     28.94541830	    -47.12922689	     -0.00000000	      0.00000000	     -0.00000000	      0.00000000	     -0.01467023	      0.13826615	     -0.01467023	      0.14495744	     -0.01467023	      0.15501028	     -0.01467023	      0.16228138	     -0.01467023	      0.14848676	     -0.01467023	      0.11600457
      0.00100000	    -10.61501718	   -480.13863232	      0.27977538	    612.18309525	      0.00000000	      0.00000000	      0.00000000	      0.00000000	     -0.00000000	     -0.00000000	      0.00000000	      0.00000000	     -0.00000000	     -0.00000000	      0.00000000	      0.00000000	     80.42530157	     48.00299154	      4.04383915	      1.28526891	     -4.18085072	     14.30612220	   -118.93223294	    130.29498248	     -0.00335712	      0.04805825	     -0.49570182	      0.04129006	     17.65076941	      0.07097824	      0.01998491	      0.06606798	     -0.02452089	      0.01075968	     28.89805986	    -47.58540850	     -0.00000000	     -0.00000000	      0.00000000	      0.00000000	     -0.01479898	      0.13821215	     -0.01479898	      0.14496094	     -0.01479898	      0.15498041	     -0.01479898	      0.16225237	     -0.01467023	      0.14848676	     -0.01467023	      0.11600457
      0.00278178	    -11.47052025	   -480.13863232	      1.36982155	    611.35944889	      0.00000000	      0.00000000	      0.00000000	      0.00000000	     -0.00000000	      0.00000000	      0.00000000	      0.00000000	     -0.00000000	     -0.00000000	      0.00000000	     -0.00000000	     80.50778802	     44.58242537	      4.04616145	      1.32137283	     -4.15508854	     14.60980582	   -118.69708419	    133.64638835	     -0.00327063	      0.04901730	     -0.49562724	      0.04242134	     17.65088922	      0.06335834	      0.02010401	      0.06761135	     -0.02450150	      0.01100783	     28.81257218	    -48.36490757	     -0.00000000	     -0.00000000	      0.00000000	      0.00000000	     -0.01502838	      0.13815923	     -0.01502838	      0.14497177	     -0.01502838	      0.15496082	     -0.01502838	      0.16214601	     -0.01467023	      0.14848676	     -0.01467023	      0.11600457
      0.00318095	    -11.66217772	   -480.13863232	      1.61382138	    611.17289592	      0.00000000	      0.00000000	      0.00000000	     -0.00000000	     -0.00000000	      0.00000000	      0.00000000	      0.00000000	     -0.00000000	     -0.00000000	      0.00000000	     -0.00000000	     80.52543061	     43.81353111	      4.04669051	      1.32940467	     -4.14924336	     14.67671437	   -118.64358753	    134.39204282	     -0.00325102	      0.04922744	     -0.49561025	      0.04267377	     17.65091415	      0.06152788	      0.02013107	      0.06795293	     -0.02449710	      0.01106265	     28.79323255	    -48.53368946	     -0.00000000	     -0.00000000	      0.00000000	      0.00000000	     -0.01507978	      0.13815214	     -0.01507978	      0.14497479	     -0.01507978	      0.15495994	     -0.01507978	      0.16212977	     -0.01467023	      0.14848676	     -0.01467023	      0.11600457
      0.00431456	    -12.20646560	   -480.13863232	      2.30634850	    610.63927247	      0.00000000	      0.00000000	      0.00000000	      0.00000000	      0.00000000	      0.00000000	      0.00000000	      0.00000000	     -0.00000000	     -0.00000000	      0.00000000	      0.00000000	     80.57385814	     41.62511331	      4.04821041	      1.35209539	     -4.13249902	     14.86448126	   -118.49004413	    136.49924052	     -0.00319488	      0.04981477	     -0.49556147	      0.04338862	     17.65098084	      0.05607774	      0.02020865	      0.06891460	     -0.02448447	      0.01121679	     28.73794778	    -49.00135425	     -0.00000000	     -0.00000000	      0.00000000	      0.00000000	     -0.01522573	      0.13813852	     -0.01522573	      0.14498425	     -0.01522573	      0.15496089	     -0.01522573	      0.16207096	     -0.01467023	      0.14848676	     -0.01467023	      0.11600457
      0.00562054	    -12.83351511	   -480.13863232	      3.10342367	    610.01782879	      0.00000000	      0.00000000	      0.00000000	      0.00000000	      0.00000000	      0.00000000	      0.00000000	      0.00000000	     -0.00000000	     -0.00000000	      0.00000000	      0.00000000	     80.62656872	     39.09558624	      4.04999316	      1.37800866	     -4.11294732	     15.07668098	   -118.31020448	    138.90766655	     -0.00312939	      0.05047396	     -0.49550427	      0.04420836	     17.65104973	      0.04932846	      0.02029936	      0.07000701	     -0.02446970	      0.01139147	     28.67361283	    -49.51878570	     -0.00000000	     -0.00000000	      0.00000000	      0.00000000	     -0.01539387	      0.13813193	     -0.01539387	      0.14499638	     -0.01539387	      0.15496591	     -0.01539387	      0.16198336	     -0.01467023	      0.14848676	     -0.01467023	      0.11600457
      0.00631070	    -13.16488842	   -480.13863232	      3.52432046	    609.68669203	      0.00000000	      0.00000000	      0.00000000	      0.00000000	      0.00000000	      0.00000000	      0.00000000	      0.00000000	     -0.00000000	     -0.00000000	      0.00000000	     -0.00000000	     80.65308867	     37.75545695	      4.05094890	      1.39159985	     -4.10250382	     15.18704171	   -118.21389907	    140.17207607	     -0.00309444	      0.05081475	     -0.49547361	      0.04463989	     17.65108248	      0.04555412	      0.02034788	      0.07057758	     -0.02446181	      0.01148252	     28.63934531	    -49.78302055	     -0.00000000	      0.00000000	      0.00000000	      0.00000000	     -0.01548273	      0.13813141	     -0.01548273	      0.14500322	     -0.01548273	      0.15497002	     -0.01548273	      0.16195293	     -0.01467023	      0.14848676	     -0.01467023	      0.11600457
      0.00817823	    -14.06156348	   -480.13863232	      4.66208795	    608.78188719	      0.00000000	      0.00000000	      0.00000000	      0.00000000	      0.00000000	     -0.00000000	      0.00000000	      0.00000000	     -0.00000000	     -0.00000000	     -0.00000000	     -0.00000000	     80.72020454	     34.11853604	      4.05358184	      1.42799973	     -4.07386701	     15.47951229	   -117.94894883	    143.56425050	     -0.00299870	      0.05171048	     -0.49538916	      0.04580170	     17.65115750	      0.03460341	      0.02048111	      0.07209801	     -0.02444014	      0.01172447	     28.54572869	    -50.46620270	     -0.00000000	     -0.00000000	      0.00000000	      0.00000000	     -0.01572317	      0.13813513	     -0.01572317	      0.14502296	     -0.01572317	      0.15498515	     -0.01572317	      0.16185459	     -0.01467023	      0.14848676	     -0.01467023	      0.11600457
      0.00906845	    -14.48899128	   -480.13863232	      5.20384256	    608.34638282	      0.00000000	      0.00000000	      0.00000000	      0.00000000	      0.00000000	     -0.00000000	      0.00000000	      0.00000000	     -0.00000000	     -0.00000000	     -0.00000000	     -0.00000000	     80.74980380	     32.37990780	      4.05486071	      1.44514812	     -4.06002607	     15.61576879	   -117.82043170	    145.16609478	     -0.00295248	      0.05212382	     -0.49534814	      0.04635242	     17.65118582	      0.02899608	      0.02054561	      0.07281064	     -0.02442965	      0.01183749	     28.50066432	    -50.77556813	     -0.00000000	      0.00000000	      0.00000000	      0.00000000	     -0.01583779	      0.13813913	     -0.01583779	      0.14503294	     -0.01583779	      0.15499386	     -0.01583779	      0.16177552	     -0.01467023	      0.14848676	     -0.01467023	      0.11600457
      0.01025004	    -15.05631826	   -480.13863232	      5.92231517	    607.76448798	      0.00000000	      0.00000000	      0.00000000	      0.00000000	      0.00000000	     -0.00000000	      0.00000000	      0.00000000	     -0.00000000	     -0.00000000	     -0.00000000	      0.00000000	     80.78669806	     30.06779682	      4.05658163	      1.46769693	     -4.04146929	     15.79348272	   -117.64765607	    147.27701042	     -0.00289057	      0.05265878	     -0.49529294	      0.04708026	     17.65121550	      0.02115782	      0.02063219	      0.07374434	     -0.02441558	      0.01198517	     28.44043356	    -51.17002165	     -0.00000000	     -0.00000000	      0.00000000	      0.00000000	     -0.01598992	      0.13814658	     -0.01598992	      0.14504672	     -0.01598992	      0.15500632	     -0.01598992	      0.16172207	     -0.01467023	      0.14848676	     -0.01467023	      0.11600457
      0.01138269	    -15.60014650	   -480.13863232	      6.61038090	    607.20286577	      0.00000000	      0.00000000	      0.00000000	      0.00000000	      0.00000000	      0.00000000	      0.00000000	      0.00000000	     -0.00000000	     -0.00000000	     -0.00000000	     -0.00000000	     80.81949709	     27.84718882	      4.05825614	      1.48907564	     -4.02348595	     15.96048384	   -117.47970483	    149.28409387	     -0.00283065	      0.05315691	     -0.49523922	      0.04777454	     17.65123500	      0.01321242	      0.02071622	      0.07462629	     -0.02440192	      0.01212422	     28.38226996	    -51.53090333	     -0.00000000	      0.00000000	      0.00000000	      0.00000000	     -0.01613575	      0.13815586	     -0.01613575	      0.14506049	     -0.01613575	      0.15501879	     -0.01613575	      0.16162889	     -0.01467023	      0.14848676	     -0.01467023	      0.11600457
